<mxfile host="Electron" modified="2023-10-23T14:29:24.208Z" agent="Mozilla/5.0 (X11; Linux x86_64) AppleWebKit/537.36 (KHTML, like Gecko) draw.io/22.0.3 Chrome/114.0.5735.289 Electron/25.8.4 Safari/537.36" etag="nQJ0wVqY-fdeAQYFTmY-" version="22.0.3" type="device">
  <diagram id="C5RBs43oDa-KdzZeNtuy" name="Page-1">
    <mxGraphModel dx="1380" dy="843" grid="0" gridSize="10" guides="1" tooltips="1" connect="1" arrows="1" fold="1" page="1" pageScale="1" pageWidth="1400" pageHeight="850" background="#ffffff" math="0" shadow="0">
      <root>
        <mxCell id="WIyWlLk6GJQsqaUBKTNV-0" />
        <mxCell id="WIyWlLk6GJQsqaUBKTNV-1" parent="WIyWlLk6GJQsqaUBKTNV-0" />
        <mxCell id="t8fvSWkeEvWG6VlZP2FP-24" value="" style="rounded=0;whiteSpace=wrap;html=1;fillColor=none;strokeColor=#000000;" parent="WIyWlLk6GJQsqaUBKTNV-1" vertex="1">
          <mxGeometry x="53" y="219" width="708" height="430" as="geometry" />
        </mxCell>
        <mxCell id="t8fvSWkeEvWG6VlZP2FP-0" value="Duck" style="swimlane;fontStyle=0;childLayout=stackLayout;horizontal=1;startSize=30;horizontalStack=0;resizeParent=1;resizeParentMax=0;resizeLast=0;collapsible=1;marginBottom=0;whiteSpace=wrap;html=1;strokeColor=#000000;" parent="WIyWlLk6GJQsqaUBKTNV-1" vertex="1">
          <mxGeometry x="297" y="259" width="240" height="199" as="geometry" />
        </mxCell>
        <mxCell id="t8fvSWkeEvWG6VlZP2FP-1" value="&lt;font color=&quot;#000000&quot;&gt;&lt;br&gt;FlyBehaviour flyBehaviour&lt;br&gt;QuackBehaviour quackBehaviour&lt;br&gt;&lt;/font&gt;" style="text;strokeColor=#000000;fillColor=#FFFFFF;align=left;verticalAlign=middle;spacingLeft=4;spacingRight=4;overflow=hidden;points=[[0,0.5],[1,0.5]];portConstraint=eastwest;rotatable=0;whiteSpace=wrap;html=1;" parent="t8fvSWkeEvWG6VlZP2FP-0" vertex="1">
          <mxGeometry y="30" width="240" height="51" as="geometry" />
        </mxCell>
        <mxCell id="t8fvSWkeEvWG6VlZP2FP-2" value="&lt;font color=&quot;#000000&quot;&gt;swim()&lt;br&gt;display()&lt;br&gt;performQuack()&lt;br&gt;performFly()&lt;br&gt;setFlyBehaviour()&lt;br&gt;setQuackBehaviour()&lt;br&gt;// future duck methods ....&lt;br&gt;&lt;/font&gt;" style="text;strokeColor=#000000;fillColor=#FFFFFF;align=left;verticalAlign=middle;spacingLeft=4;spacingRight=4;overflow=hidden;points=[[0,0.5],[1,0.5]];portConstraint=eastwest;rotatable=0;whiteSpace=wrap;html=1;" parent="t8fvSWkeEvWG6VlZP2FP-0" vertex="1">
          <mxGeometry y="81" width="240" height="118" as="geometry" />
        </mxCell>
        <mxCell id="t8fvSWkeEvWG6VlZP2FP-4" value="MallardDuck" style="swimlane;fontStyle=0;childLayout=stackLayout;horizontal=1;startSize=30;horizontalStack=0;resizeParent=1;resizeParentMax=0;resizeLast=0;collapsible=1;marginBottom=0;whiteSpace=wrap;html=1;strokeColor=#000000;" parent="WIyWlLk6GJQsqaUBKTNV-1" vertex="1">
          <mxGeometry x="68" y="559" width="146" height="81" as="geometry" />
        </mxCell>
        <mxCell id="t8fvSWkeEvWG6VlZP2FP-5" value="&lt;font color=&quot;#000000&quot;&gt;&lt;br&gt;display(){&lt;br&gt;// looks like a mallard}&lt;br&gt;&lt;/font&gt;" style="text;strokeColor=#000000;fillColor=#FFFFFF;align=left;verticalAlign=middle;spacingLeft=4;spacingRight=4;overflow=hidden;points=[[0,0.5],[1,0.5]];portConstraint=eastwest;rotatable=0;whiteSpace=wrap;html=1;" parent="t8fvSWkeEvWG6VlZP2FP-4" vertex="1">
          <mxGeometry y="30" width="146" height="51" as="geometry" />
        </mxCell>
        <mxCell id="t8fvSWkeEvWG6VlZP2FP-13" value="RedheadDuck" style="swimlane;fontStyle=0;childLayout=stackLayout;horizontal=1;startSize=30;horizontalStack=0;resizeParent=1;resizeParentMax=0;resizeLast=0;collapsible=1;marginBottom=0;whiteSpace=wrap;html=1;strokeColor=#000000;" parent="WIyWlLk6GJQsqaUBKTNV-1" vertex="1">
          <mxGeometry x="245" y="559" width="146" height="81" as="geometry" />
        </mxCell>
        <mxCell id="t8fvSWkeEvWG6VlZP2FP-14" value="&lt;font color=&quot;#000000&quot;&gt;&lt;br&gt;display(){&lt;br&gt;// looks like a mallard}&lt;br&gt;&lt;/font&gt;" style="text;strokeColor=#000000;fillColor=#FFFFFF;align=left;verticalAlign=middle;spacingLeft=4;spacingRight=4;overflow=hidden;points=[[0,0.5],[1,0.5]];portConstraint=eastwest;rotatable=0;whiteSpace=wrap;html=1;" parent="t8fvSWkeEvWG6VlZP2FP-13" vertex="1">
          <mxGeometry y="30" width="146" height="51" as="geometry" />
        </mxCell>
        <mxCell id="t8fvSWkeEvWG6VlZP2FP-15" value="RubberDuck" style="swimlane;fontStyle=0;childLayout=stackLayout;horizontal=1;startSize=30;horizontalStack=0;resizeParent=1;resizeParentMax=0;resizeLast=0;collapsible=1;marginBottom=0;whiteSpace=wrap;html=1;strokeColor=#000000;" parent="WIyWlLk6GJQsqaUBKTNV-1" vertex="1">
          <mxGeometry x="419" y="557" width="146" height="81" as="geometry" />
        </mxCell>
        <mxCell id="t8fvSWkeEvWG6VlZP2FP-16" value="&lt;font color=&quot;#000000&quot;&gt;&lt;br&gt;display(){&lt;br&gt;// looks like a mallard}&lt;br&gt;&lt;/font&gt;" style="text;strokeColor=#000000;fillColor=#FFFFFF;align=left;verticalAlign=middle;spacingLeft=4;spacingRight=4;overflow=hidden;points=[[0,0.5],[1,0.5]];portConstraint=eastwest;rotatable=0;whiteSpace=wrap;html=1;" parent="t8fvSWkeEvWG6VlZP2FP-15" vertex="1">
          <mxGeometry y="30" width="146" height="51" as="geometry" />
        </mxCell>
        <mxCell id="t8fvSWkeEvWG6VlZP2FP-17" value="DecoyDuck" style="swimlane;fontStyle=0;childLayout=stackLayout;horizontal=1;startSize=30;horizontalStack=0;resizeParent=1;resizeParentMax=0;resizeLast=0;collapsible=1;marginBottom=0;whiteSpace=wrap;html=1;strokeColor=#000000;" parent="WIyWlLk6GJQsqaUBKTNV-1" vertex="1">
          <mxGeometry x="597" y="557" width="146" height="81" as="geometry" />
        </mxCell>
        <mxCell id="t8fvSWkeEvWG6VlZP2FP-18" value="&lt;font color=&quot;#000000&quot;&gt;&lt;br&gt;display(){&lt;br&gt;// looks like a mallard}&lt;br&gt;&lt;/font&gt;" style="text;strokeColor=#000000;fillColor=#FFFFFF;align=left;verticalAlign=middle;spacingLeft=4;spacingRight=4;overflow=hidden;points=[[0,0.5],[1,0.5]];portConstraint=eastwest;rotatable=0;whiteSpace=wrap;html=1;" parent="t8fvSWkeEvWG6VlZP2FP-17" vertex="1">
          <mxGeometry y="30" width="146" height="51" as="geometry" />
        </mxCell>
        <mxCell id="t8fvSWkeEvWG6VlZP2FP-20" value="" style="endArrow=block;html=1;rounded=0;exitX=0.5;exitY=0;exitDx=0;exitDy=0;entryX=0.154;entryY=1.025;entryDx=0;entryDy=0;entryPerimeter=0;strokeColor=#000000;endFill=0;endSize=8;" parent="WIyWlLk6GJQsqaUBKTNV-1" source="t8fvSWkeEvWG6VlZP2FP-4" target="t8fvSWkeEvWG6VlZP2FP-2" edge="1">
          <mxGeometry width="50" height="50" relative="1" as="geometry">
            <mxPoint x="572" y="456" as="sourcePoint" />
            <mxPoint x="622" y="406" as="targetPoint" />
          </mxGeometry>
        </mxCell>
        <mxCell id="t8fvSWkeEvWG6VlZP2FP-21" value="" style="endArrow=block;html=1;rounded=0;exitX=0.5;exitY=0;exitDx=0;exitDy=0;entryX=0.354;entryY=1.008;entryDx=0;entryDy=0;entryPerimeter=0;strokeColor=#000000;endFill=0;endSize=8;" parent="WIyWlLk6GJQsqaUBKTNV-1" source="t8fvSWkeEvWG6VlZP2FP-13" target="t8fvSWkeEvWG6VlZP2FP-2" edge="1">
          <mxGeometry width="50" height="50" relative="1" as="geometry">
            <mxPoint x="151" y="569" as="sourcePoint" />
            <mxPoint x="344" y="471" as="targetPoint" />
          </mxGeometry>
        </mxCell>
        <mxCell id="t8fvSWkeEvWG6VlZP2FP-22" value="" style="endArrow=block;html=1;rounded=0;exitX=0.5;exitY=0;exitDx=0;exitDy=0;entryX=0.604;entryY=1.025;entryDx=0;entryDy=0;entryPerimeter=0;strokeColor=#000000;endFill=0;endSize=8;" parent="WIyWlLk6GJQsqaUBKTNV-1" source="t8fvSWkeEvWG6VlZP2FP-15" target="t8fvSWkeEvWG6VlZP2FP-2" edge="1">
          <mxGeometry width="50" height="50" relative="1" as="geometry">
            <mxPoint x="328" y="569" as="sourcePoint" />
            <mxPoint x="368" y="467" as="targetPoint" />
          </mxGeometry>
        </mxCell>
        <mxCell id="t8fvSWkeEvWG6VlZP2FP-23" value="" style="endArrow=block;html=1;rounded=0;exitX=0.5;exitY=0;exitDx=0;exitDy=0;entryX=0.808;entryY=1;entryDx=0;entryDy=0;entryPerimeter=0;strokeColor=#000000;endFill=0;endSize=8;" parent="WIyWlLk6GJQsqaUBKTNV-1" source="t8fvSWkeEvWG6VlZP2FP-17" target="t8fvSWkeEvWG6VlZP2FP-2" edge="1">
          <mxGeometry width="50" height="50" relative="1" as="geometry">
            <mxPoint x="502" y="567" as="sourcePoint" />
            <mxPoint x="452" y="471" as="targetPoint" />
          </mxGeometry>
        </mxCell>
        <mxCell id="t8fvSWkeEvWG6VlZP2FP-26" value="" style="rounded=0;whiteSpace=wrap;html=1;fillColor=none;strokeColor=#000000;" parent="WIyWlLk6GJQsqaUBKTNV-1" vertex="1">
          <mxGeometry x="803" y="67" width="362" height="301" as="geometry" />
        </mxCell>
        <mxCell id="t8fvSWkeEvWG6VlZP2FP-27" value="FlyWithWings" style="swimlane;fontStyle=0;childLayout=stackLayout;horizontal=1;startSize=30;horizontalStack=0;resizeParent=1;resizeParentMax=0;resizeLast=0;collapsible=1;marginBottom=0;whiteSpace=wrap;html=1;strokeColor=#000000;" parent="WIyWlLk6GJQsqaUBKTNV-1" vertex="1">
          <mxGeometry x="827" y="245" width="146" height="97" as="geometry" />
        </mxCell>
        <mxCell id="t8fvSWkeEvWG6VlZP2FP-28" value="&lt;font color=&quot;#000000&quot;&gt;&lt;br&gt;fly(){&lt;br&gt;// implements duck flying&lt;br&gt;}&lt;br&gt;&lt;/font&gt;" style="text;strokeColor=#000000;fillColor=#FFFFFF;align=left;verticalAlign=middle;spacingLeft=4;spacingRight=4;overflow=hidden;points=[[0,0.5],[1,0.5]];portConstraint=eastwest;rotatable=0;whiteSpace=wrap;html=1;" parent="t8fvSWkeEvWG6VlZP2FP-27" vertex="1">
          <mxGeometry y="30" width="146" height="67" as="geometry" />
        </mxCell>
        <mxCell id="t8fvSWkeEvWG6VlZP2FP-29" value="FlyNoWay" style="swimlane;fontStyle=0;childLayout=stackLayout;horizontal=1;startSize=30;horizontalStack=0;resizeParent=1;resizeParentMax=0;resizeLast=0;collapsible=1;marginBottom=0;whiteSpace=wrap;html=1;strokeColor=#000000;" parent="WIyWlLk6GJQsqaUBKTNV-1" vertex="1">
          <mxGeometry x="992" y="245" width="146" height="97" as="geometry" />
        </mxCell>
        <mxCell id="t8fvSWkeEvWG6VlZP2FP-30" value="&lt;font color=&quot;#000000&quot;&gt;&lt;br style=&quot;&quot;&gt;fly(){&lt;br style=&quot;&quot;&gt;// do nothing - can&#39;t fly&lt;br style=&quot;&quot;&gt;}&lt;br&gt;&lt;/font&gt;" style="text;strokeColor=#000000;fillColor=#FFFFFF;align=left;verticalAlign=middle;spacingLeft=4;spacingRight=4;overflow=hidden;points=[[0,0.5],[1,0.5]];portConstraint=eastwest;rotatable=0;whiteSpace=wrap;html=1;" parent="t8fvSWkeEvWG6VlZP2FP-29" vertex="1">
          <mxGeometry y="30" width="146" height="67" as="geometry" />
        </mxCell>
        <mxCell id="t8fvSWkeEvWG6VlZP2FP-31" value="&amp;lt;&amp;lt;interface&amp;gt;&amp;gt;&lt;br&gt;FlyBehaviour" style="swimlane;fontStyle=0;childLayout=stackLayout;horizontal=1;startSize=33;horizontalStack=0;resizeParent=1;resizeParentMax=0;resizeLast=0;collapsible=1;marginBottom=0;whiteSpace=wrap;html=1;strokeColor=#000000;" parent="WIyWlLk6GJQsqaUBKTNV-1" vertex="1">
          <mxGeometry x="922" y="113" width="146" height="67" as="geometry">
            <mxRectangle x="917" y="83" width="109" height="41" as="alternateBounds" />
          </mxGeometry>
        </mxCell>
        <mxCell id="t8fvSWkeEvWG6VlZP2FP-32" value="&lt;font color=&quot;#000000&quot;&gt;&lt;br&gt;fly()&lt;br&gt;&lt;/font&gt;" style="text;strokeColor=#000000;fillColor=#FFFFFF;align=left;verticalAlign=middle;spacingLeft=4;spacingRight=4;overflow=hidden;points=[[0,0.5],[1,0.5]];portConstraint=eastwest;rotatable=0;whiteSpace=wrap;html=1;" parent="t8fvSWkeEvWG6VlZP2FP-31" vertex="1">
          <mxGeometry y="33" width="146" height="34" as="geometry" />
        </mxCell>
        <mxCell id="t8fvSWkeEvWG6VlZP2FP-34" value="&lt;b&gt;&lt;font style=&quot;font-size: 14px;&quot;&gt;Client&lt;/font&gt;&lt;/b&gt;" style="text;html=1;strokeColor=none;fillColor=none;align=center;verticalAlign=middle;whiteSpace=wrap;rounded=0;fontColor=#000000;" parent="WIyWlLk6GJQsqaUBKTNV-1" vertex="1">
          <mxGeometry x="71" y="240" width="60" height="30" as="geometry" />
        </mxCell>
        <mxCell id="t8fvSWkeEvWG6VlZP2FP-35" value="&lt;b&gt;&lt;font style=&quot;font-size: 14px;&quot;&gt;Encapsulated fly behaviour&lt;/font&gt;&lt;/b&gt;" style="text;html=1;strokeColor=none;fillColor=none;align=center;verticalAlign=middle;whiteSpace=wrap;rounded=0;fontColor=#000000;" parent="WIyWlLk6GJQsqaUBKTNV-1" vertex="1">
          <mxGeometry x="879" y="81" width="232" height="30" as="geometry" />
        </mxCell>
        <mxCell id="t8fvSWkeEvWG6VlZP2FP-36" value="" style="endArrow=block;html=1;rounded=0;exitX=0.5;exitY=0;exitDx=0;exitDy=0;strokeColor=#000000;endFill=0;dashed=1;endSize=8;" parent="WIyWlLk6GJQsqaUBKTNV-1" source="t8fvSWkeEvWG6VlZP2FP-27" target="t8fvSWkeEvWG6VlZP2FP-32" edge="1">
          <mxGeometry width="50" height="50" relative="1" as="geometry">
            <mxPoint x="686" y="154" as="sourcePoint" />
            <mxPoint x="879" y="56" as="targetPoint" />
          </mxGeometry>
        </mxCell>
        <mxCell id="t8fvSWkeEvWG6VlZP2FP-37" value="" style="endArrow=block;html=1;rounded=0;exitX=0.5;exitY=0;exitDx=0;exitDy=0;strokeColor=#000000;endFill=0;dashed=1;entryX=0.669;entryY=0.982;entryDx=0;entryDy=0;entryPerimeter=0;endSize=8;" parent="WIyWlLk6GJQsqaUBKTNV-1" source="t8fvSWkeEvWG6VlZP2FP-29" target="t8fvSWkeEvWG6VlZP2FP-32" edge="1">
          <mxGeometry width="50" height="50" relative="1" as="geometry">
            <mxPoint x="910" y="255" as="sourcePoint" />
            <mxPoint x="985" y="190" as="targetPoint" />
          </mxGeometry>
        </mxCell>
        <mxCell id="t8fvSWkeEvWG6VlZP2FP-38" value="" style="rounded=0;whiteSpace=wrap;html=1;fillColor=none;strokeColor=#000000;" parent="WIyWlLk6GJQsqaUBKTNV-1" vertex="1">
          <mxGeometry x="806" y="425" width="531" height="283" as="geometry" />
        </mxCell>
        <mxCell id="t8fvSWkeEvWG6VlZP2FP-39" value="Quack" style="swimlane;fontStyle=0;childLayout=stackLayout;horizontal=1;startSize=30;horizontalStack=0;resizeParent=1;resizeParentMax=0;resizeLast=0;collapsible=1;marginBottom=0;whiteSpace=wrap;html=1;strokeColor=#000000;" parent="WIyWlLk6GJQsqaUBKTNV-1" vertex="1">
          <mxGeometry x="814" y="598" width="172" height="97" as="geometry" />
        </mxCell>
        <mxCell id="t8fvSWkeEvWG6VlZP2FP-40" value="&lt;font color=&quot;#000000&quot;&gt;&lt;br&gt;quack(){&lt;br&gt;// implements duck quacking&lt;br&gt;}&lt;br&gt;&lt;/font&gt;" style="text;strokeColor=#000000;fillColor=#FFFFFF;align=left;verticalAlign=middle;spacingLeft=4;spacingRight=4;overflow=hidden;points=[[0,0.5],[1,0.5]];portConstraint=eastwest;rotatable=0;whiteSpace=wrap;html=1;" parent="t8fvSWkeEvWG6VlZP2FP-39" vertex="1">
          <mxGeometry y="30" width="172" height="67" as="geometry" />
        </mxCell>
        <mxCell id="t8fvSWkeEvWG6VlZP2FP-41" value="Squeak" style="swimlane;fontStyle=0;childLayout=stackLayout;horizontal=1;startSize=30;horizontalStack=0;resizeParent=1;resizeParentMax=0;resizeLast=0;collapsible=1;marginBottom=0;whiteSpace=wrap;html=1;strokeColor=#000000;" parent="WIyWlLk6GJQsqaUBKTNV-1" vertex="1">
          <mxGeometry x="1008" y="598" width="141" height="97" as="geometry" />
        </mxCell>
        <mxCell id="t8fvSWkeEvWG6VlZP2FP-42" value="&lt;font color=&quot;#000000&quot;&gt;&lt;br style=&quot;&quot;&gt;quack(){&lt;br style=&quot;&quot;&gt;// rubber duckie squeak&lt;br style=&quot;&quot;&gt;}&lt;br&gt;&lt;/font&gt;" style="text;strokeColor=#000000;fillColor=#FFFFFF;align=left;verticalAlign=middle;spacingLeft=4;spacingRight=4;overflow=hidden;points=[[0,0.5],[1,0.5]];portConstraint=eastwest;rotatable=0;whiteSpace=wrap;html=1;" parent="t8fvSWkeEvWG6VlZP2FP-41" vertex="1">
          <mxGeometry y="30" width="141" height="67" as="geometry" />
        </mxCell>
        <mxCell id="t8fvSWkeEvWG6VlZP2FP-43" value="&amp;lt;&amp;lt;interface&amp;gt;&amp;gt;&lt;br&gt;QuackBehaviour" style="swimlane;fontStyle=0;childLayout=stackLayout;horizontal=1;startSize=33;horizontalStack=0;resizeParent=1;resizeParentMax=0;resizeLast=0;collapsible=1;marginBottom=0;whiteSpace=wrap;html=1;strokeColor=#000000;" parent="WIyWlLk6GJQsqaUBKTNV-1" vertex="1">
          <mxGeometry x="1005.5" y="470" width="146" height="67" as="geometry">
            <mxRectangle x="917" y="83" width="109" height="41" as="alternateBounds" />
          </mxGeometry>
        </mxCell>
        <mxCell id="t8fvSWkeEvWG6VlZP2FP-44" value="&lt;font color=&quot;#000000&quot;&gt;&lt;br&gt;quack()&lt;br&gt;&lt;/font&gt;" style="text;strokeColor=#000000;fillColor=#FFFFFF;align=left;verticalAlign=middle;spacingLeft=4;spacingRight=4;overflow=hidden;points=[[0,0.5],[1,0.5]];portConstraint=eastwest;rotatable=0;whiteSpace=wrap;html=1;" parent="t8fvSWkeEvWG6VlZP2FP-43" vertex="1">
          <mxGeometry y="33" width="146" height="34" as="geometry" />
        </mxCell>
        <mxCell id="t8fvSWkeEvWG6VlZP2FP-45" value="&lt;b&gt;&lt;font style=&quot;font-size: 14px;&quot;&gt;Encapsulated quack behaviour&lt;/font&gt;&lt;/b&gt;" style="text;html=1;strokeColor=none;fillColor=none;align=center;verticalAlign=middle;whiteSpace=wrap;rounded=0;fontColor=#000000;" parent="WIyWlLk6GJQsqaUBKTNV-1" vertex="1">
          <mxGeometry x="982" y="431" width="232" height="30" as="geometry" />
        </mxCell>
        <mxCell id="t8fvSWkeEvWG6VlZP2FP-46" value="" style="endArrow=block;html=1;rounded=0;exitX=0.5;exitY=0;exitDx=0;exitDy=0;strokeColor=#000000;endFill=0;dashed=1;entryX=0.276;entryY=0.985;entryDx=0;entryDy=0;entryPerimeter=0;endSize=8;" parent="WIyWlLk6GJQsqaUBKTNV-1" source="t8fvSWkeEvWG6VlZP2FP-39" target="t8fvSWkeEvWG6VlZP2FP-44" edge="1">
          <mxGeometry width="50" height="50" relative="1" as="geometry">
            <mxPoint x="731" y="507" as="sourcePoint" />
            <mxPoint x="1036" y="540" as="targetPoint" />
          </mxGeometry>
        </mxCell>
        <mxCell id="t8fvSWkeEvWG6VlZP2FP-47" value="" style="endArrow=block;html=1;rounded=0;exitX=0.5;exitY=0;exitDx=0;exitDy=0;strokeColor=#000000;endFill=0;dashed=1;entryX=0.492;entryY=1.011;entryDx=0;entryDy=0;entryPerimeter=0;endSize=8;" parent="WIyWlLk6GJQsqaUBKTNV-1" source="t8fvSWkeEvWG6VlZP2FP-41" target="t8fvSWkeEvWG6VlZP2FP-44" edge="1">
          <mxGeometry width="50" height="50" relative="1" as="geometry">
            <mxPoint x="955" y="608" as="sourcePoint" />
            <mxPoint x="1030" y="543" as="targetPoint" />
          </mxGeometry>
        </mxCell>
        <mxCell id="t8fvSWkeEvWG6VlZP2FP-48" value="MuteQuack" style="swimlane;fontStyle=0;childLayout=stackLayout;horizontal=1;startSize=30;horizontalStack=0;resizeParent=1;resizeParentMax=0;resizeLast=0;collapsible=1;marginBottom=0;whiteSpace=wrap;html=1;strokeColor=#000000;" parent="WIyWlLk6GJQsqaUBKTNV-1" vertex="1">
          <mxGeometry x="1169" y="598" width="157" height="97" as="geometry" />
        </mxCell>
        <mxCell id="t8fvSWkeEvWG6VlZP2FP-49" value="&lt;font color=&quot;#000000&quot;&gt;&lt;br style=&quot;&quot;&gt;quack(){&lt;br style=&quot;&quot;&gt;// do nothing - can&#39;t quack&lt;br&gt;}&lt;br&gt;&lt;/font&gt;" style="text;strokeColor=#000000;fillColor=#FFFFFF;align=left;verticalAlign=middle;spacingLeft=4;spacingRight=4;overflow=hidden;points=[[0,0.5],[1,0.5]];portConstraint=eastwest;rotatable=0;whiteSpace=wrap;html=1;" parent="t8fvSWkeEvWG6VlZP2FP-48" vertex="1">
          <mxGeometry y="30" width="157" height="67" as="geometry" />
        </mxCell>
        <mxCell id="t8fvSWkeEvWG6VlZP2FP-51" value="" style="endArrow=block;html=1;rounded=0;exitX=0.5;exitY=0;exitDx=0;exitDy=0;strokeColor=#000000;endFill=0;dashed=1;entryX=0.75;entryY=1;entryDx=0;entryDy=0;endSize=8;" parent="WIyWlLk6GJQsqaUBKTNV-1" source="t8fvSWkeEvWG6VlZP2FP-48" target="t8fvSWkeEvWG6VlZP2FP-43" edge="1">
          <mxGeometry width="50" height="50" relative="1" as="geometry">
            <mxPoint x="1089" y="608" as="sourcePoint" />
            <mxPoint x="1087" y="547" as="targetPoint" />
          </mxGeometry>
        </mxCell>
        <mxCell id="t8fvSWkeEvWG6VlZP2FP-52" value="" style="endArrow=open;html=1;rounded=0;exitX=0.999;exitY=0.26;exitDx=0;exitDy=0;exitPerimeter=0;entryX=0;entryY=0.25;entryDx=0;entryDy=0;strokeColor=#000000;endFill=0;strokeWidth=1;endSize=8;" parent="WIyWlLk6GJQsqaUBKTNV-1" source="t8fvSWkeEvWG6VlZP2FP-1" target="t8fvSWkeEvWG6VlZP2FP-31" edge="1">
          <mxGeometry width="50" height="50" relative="1" as="geometry">
            <mxPoint x="846" y="412" as="sourcePoint" />
            <mxPoint x="896" y="362" as="targetPoint" />
          </mxGeometry>
        </mxCell>
        <mxCell id="t8fvSWkeEvWG6VlZP2FP-53" value="" style="endArrow=open;html=1;rounded=0;exitX=1;exitY=0.5;exitDx=0;exitDy=0;entryX=0;entryY=0.25;entryDx=0;entryDy=0;strokeColor=#000000;endFill=0;strokeWidth=1;endSize=8;" parent="WIyWlLk6GJQsqaUBKTNV-1" source="t8fvSWkeEvWG6VlZP2FP-1" target="t8fvSWkeEvWG6VlZP2FP-43" edge="1">
          <mxGeometry width="50" height="50" relative="1" as="geometry">
            <mxPoint x="547" y="312" as="sourcePoint" />
            <mxPoint x="932" y="140" as="targetPoint" />
          </mxGeometry>
        </mxCell>
        <mxCell id="t8fvSWkeEvWG6VlZP2FP-54" value="" style="endArrow=block;html=1;rounded=0;exitX=0.5;exitY=0;exitDx=0;exitDy=0;strokeColor=#000000;endFill=0;endSize=8;" parent="WIyWlLk6GJQsqaUBKTNV-1" edge="1">
          <mxGeometry width="50" height="50" relative="1" as="geometry">
            <mxPoint x="108" y="113" as="sourcePoint" />
            <mxPoint x="216" y="111" as="targetPoint" />
          </mxGeometry>
        </mxCell>
        <mxCell id="t8fvSWkeEvWG6VlZP2FP-55" value="" style="endArrow=open;html=1;rounded=0;exitX=0.999;exitY=0.26;exitDx=0;exitDy=0;exitPerimeter=0;strokeColor=#000000;endFill=0;strokeWidth=1;endSize=8;" parent="WIyWlLk6GJQsqaUBKTNV-1" edge="1">
          <mxGeometry width="50" height="50" relative="1" as="geometry">
            <mxPoint x="107" y="136" as="sourcePoint" />
            <mxPoint x="213" y="136" as="targetPoint" />
          </mxGeometry>
        </mxCell>
        <mxCell id="t8fvSWkeEvWG6VlZP2FP-56" value="" style="endArrow=block;html=1;rounded=0;exitX=0.5;exitY=0;exitDx=0;exitDy=0;strokeColor=#000000;endFill=0;dashed=1;endSize=8;" parent="WIyWlLk6GJQsqaUBKTNV-1" edge="1">
          <mxGeometry width="50" height="50" relative="1" as="geometry">
            <mxPoint x="108" y="158" as="sourcePoint" />
            <mxPoint x="214" y="158" as="targetPoint" />
          </mxGeometry>
        </mxCell>
        <mxCell id="t8fvSWkeEvWG6VlZP2FP-57" value="&lt;font color=&quot;#000000&quot;&gt;IS-A relation inheritance (&quot;extends&quot;)&lt;/font&gt;" style="text;html=1;strokeColor=none;fillColor=none;align=center;verticalAlign=middle;whiteSpace=wrap;rounded=0;" parent="WIyWlLk6GJQsqaUBKTNV-1" vertex="1">
          <mxGeometry x="222" y="104" width="225" height="15" as="geometry" />
        </mxCell>
        <mxCell id="t8fvSWkeEvWG6VlZP2FP-58" value="&lt;font color=&quot;#000000&quot;&gt;interface (&quot;implements&quot;)&lt;/font&gt;" style="text;html=1;strokeColor=none;fillColor=none;align=center;verticalAlign=middle;whiteSpace=wrap;rounded=0;" parent="WIyWlLk6GJQsqaUBKTNV-1" vertex="1">
          <mxGeometry x="232" y="151" width="144" height="15" as="geometry" />
        </mxCell>
        <mxCell id="t8fvSWkeEvWG6VlZP2FP-59" value="&lt;font color=&quot;#000000&quot;&gt;HAS-A relation&lt;/font&gt;" style="text;html=1;strokeColor=none;fillColor=none;align=center;verticalAlign=middle;whiteSpace=wrap;rounded=0;" parent="WIyWlLk6GJQsqaUBKTNV-1" vertex="1">
          <mxGeometry x="235" y="130" width="90" height="15" as="geometry" />
        </mxCell>
        <mxCell id="8nDAL5GfCSXI9i0IGy9Z-0" value="" style="rounded=0;whiteSpace=wrap;html=1;fillColor=none;strokeColor=#000000;" parent="WIyWlLk6GJQsqaUBKTNV-1" vertex="1">
          <mxGeometry x="41" y="49" width="1306" height="670" as="geometry" />
        </mxCell>
      </root>
    </mxGraphModel>
  </diagram>
</mxfile>
